<svg xmlns="http://www.w3.org/2000/svg" width="586" height="503" fill="none" viewBox="0 0 586 503"><path stroke="#1C4766" stroke-width="4" d="M2 1C8.38632 42.9102 26.4277 131.52 47.5025 150.679C73.8461 174.628 126.533 228.512 151.679 221.328M151.679 221.328C171.796 215.58 206.362 227.714 221.13 234.5C249.47 259.646 309.501 308.741 322.912 303.951C339.676 297.964 370.81 293.174 377.994 303.951C385.179 314.728 412.72 303.951 416.312 303.951C419.905 303.951 454.63 293.174 460.617 303.951C466.604 314.728 477.381 309.938 474.987 330.294C473.071 346.58 481.373 351.449 485.763 351.848C485.763 360.629 482.65 378.671 470.197 380.587C454.63 382.982 445.051 392.561 440.261 386.574C435.471 380.587 464.21 434.471 474.987 435.669C483.608 436.627 515.3 468.798 530.068 484.763C541.644 481.171 567.907 477.579 580.361 491.948C595.927 509.91 546.833 484.763 543.24 496.738C540.366 506.317 523.682 497.536 515.699 491.948C500.133 483.566 467.323 467.041 460.617 467.999C452.235 469.197 406.733 412.917 403.14 420.102C399.548 427.287 383.982 433.274 389.969 440.458C395.956 447.643 412.72 478.776 422.299 477.579C431.879 476.381 465.407 487.158 460.617 491.948C455.828 496.738 428.287 487.158 422.299 491.948C416.312 496.738 343.269 445.248 345.664 435.669C348.058 426.089 366.02 412.917 377.994 409.325C389.969 405.733 356.441 409.325 339.676 409.325C322.912 409.325 217.538 323.11 221.13 319.517C224.723 315.925 247.474 391.364 234.302 394.956C221.13 398.548 161.259 404.535 161.259 420.102C161.259 435.669 186.405 467.999 191.195 467.999C195.984 467.999 191.195 477.579 180.418 472.789C169.641 467.999 163.654 450.038 157.666 452.433C152.877 454.349 138.108 418.905 131.323 400.943C150.083 398.149 186.884 391.364 184.01 386.574C180.418 380.587 98.9922 344.664 96.5973 355.441C94.2024 366.217 66.6614 410.522 59.4768 405.733C52.2922 400.943 59.4768 392.561 63.0691 386.574C66.6614 380.587 98.9922 330.294 93.005 330.294C87.0178 330.294 170.838 353.046 166.048 343.466C161.259 333.887 140.902 307.543 138.507 288.384C136.113 269.225 151.679 262.041 151.679 251.264C151.679 240.487 157.666 220.698 151.679 221.328Z"/></svg>