<svg xmlns="http://www.w3.org/2000/svg" width="584" height="352" fill="none" viewBox="0 0 584 352"><path stroke="#1C4766" stroke-width="4" d="M2 17.8217C27.3222 -13.5296 108.595 8.1753 129.817 27.4684C156.345 51.5849 229.9 111.875 255.222 104.641M255.222 104.641C275.48 98.8526 310.288 111.072 325.16 117.905C353.698 143.227 369.534 132.374 383.039 127.551C399.921 121.522 462.624 116.699 469.859 127.551C477.094 138.404 508.445 122.728 512.062 122.728C515.68 122.728 550.649 111.876 556.678 122.728C562.707 133.58 573.559 128.757 571.148 149.256C569.218 165.655 577.579 170.559 582 170.961C582 179.803 578.865 197.971 566.324 199.9C550.649 202.312 541.002 211.959 536.179 205.93C531.355 199.9 502.416 267.427 513.268 268.633C521.95 269.597 562.305 301.993 577.177 318.071C588.833 314.453 554.266 342.187 536.179 345.805C512.709 350.499 538.952 340.359 542.208 329.506C545.102 319.859 564.717 323.698 556.678 318.071C541.002 309.63 510.374 284.549 503.622 285.514C495.181 286.72 467.447 252.957 463.829 260.192C460.212 267.426 444.536 273.455 450.565 280.69C456.595 287.925 444.58 305.657 438.507 313.248C428.861 325.306 416.802 325.307 409.568 337.366C406.058 343.215 405.95 324.683 399.921 329.506C393.892 334.329 419.214 290.337 421.626 280.69C424.037 271.044 426.449 252.957 438.507 249.339C450.565 245.722 416.802 249.339 399.921 249.339C383.039 249.339 351.688 222.811 338.424 220.4C325.16 217.988 398 247 391.48 260.192C384.96 273.383 403.097 295.642 393.508 318.071C384.404 339.365 426.382 330.533 447.396 343.533C448.782 344.391 448.351 346.289 446.73 346.462C431.709 348.064 402.939 342.413 393.112 348.183C392.042 348.812 390.707 349.119 389.707 348.384C380.391 341.535 378.345 316.849 373.393 313.248C360.129 303.601 354.904 290.337 348.071 272.25C329.983 268.633 329.405 263.882 325.16 260.192C310.69 247.612 309.853 305.825 319.5 321.5C332.536 318.778 386.825 348.847 371.44 349.415C371.166 349.425 370.845 349.363 370.593 349.254C325.012 329.565 299.013 339.938 303.455 318.071C297.426 299.984 288.985 310.836 284.162 285.514C279.339 260.192 282.956 238.487 278.133 228.841C273.31 219.194 244.37 191.46 241.958 172.167C239.547 152.873 255.222 145.639 255.222 134.786C255.222 123.934 261.252 104.006 255.222 104.641Z"/></svg>