<svg width="302" height="302" viewBox="0 0 302 302" fill="none" xmlns="http://www.w3.org/2000/svg">
<mask id="mask0" masktype="alpha" maskUnits="userSpaceOnUse" x="0" y="0" width="302" height="302">
<circle cx="151" cy="151" r="149.867" fill="white" stroke="#23689B" stroke-width="2.265"/>
</mask>
<g mask="url(#mask0)">
<circle cx="151" cy="151" r="145.086" fill="#FAF8F2" stroke="#1C4766" stroke-width="11.8283"/>
<path d="M398.955 86.426C390 98.4276 356.02 81.3382 330.159 76.182C285.929 67.3637 275.024 48.1337 226.964 45.4501C192.98 43.5525 167.816 56.1005 135.235 60.8161C78.9639 68.9603 9.10786 76.182 9.10786 91.548C-53.9557 114.597 -105.553 104.353 -139.951 109.475C-134.218 99.231 -145.684 94.109 -168.617 88.987C-168.617 80.3489 -154.713 71.5274 -137.075 67.4788C-132.5 66.4286 -130.598 66.0084 -128.967 65.0417C-130.258 63.8514 -131.502 62.6456 -131.958 61.2506C-132.832 58.5822 -131.674 55.9821 -128.485 53.1331C-118.473 44.1876 -71.1548 53.1331 -71.1548 53.1331C-71.1548 53.1331 -39.6005 54.0593 -19.5574 53.1331C7.98921 51.8601 4.61066 44.5939 32.0401 42.8891C67.5206 40.684 106.887 50.3782 140.968 45.4501C168.741 41.4342 175.291 37.4909 204.032 35.2061C217.257 34.1547 224.996 27.5231 238.43 27.5231C258.58 27.5231 263.161 20.5222 290.027 27.5231L358.824 45.4501C358.824 45.4501 297.797 33.9613 290.027 45.4501C283.145 55.6274 310.657 59.8441 330.159 65.938C353.365 73.1894 391.504 63.977 398.955 76.182C401.312 80.0416 401.787 82.6308 398.955 86.426Z" fill="#1C4766"/>
</g>
<path d="M137.08 64.509C138.342 59.4607 139.463 59.9191 138.342 54.4124C137.695 51.234 138.044 48.1462 135.89 45.7217C134.876 47.6371 136.42 49.8066 135.818 51.8883C134.996 54.729 135.754 56.5584 133.294 58.1988C130.337 60.1702 128.142 54.1789 128.245 50.6263C128.378 46.0842 132.599 42.2966 137.08 43.0539C140.876 43.6954 143.39 50.6263 143.39 50.6263C143.39 50.6263 145.914 69.5573 143.39 79.654C132.032 84.7023 129.738 85.4029 121.935 92.2746C113.501 99.7028 106.537 126.186 105.528 114.992C105.395 113.519 105.675 102.58 105.528 101.109C104.266 88.4884 106.79 85.9641 103.004 78.3918C97.9557 79.6539 93.2752 91.2217 84.0729 96.0608C81.1465 97.5997 74.7796 96.0032 72.7142 98.585C69.6353 102.434 67.8813 110.239 72.7143 111.206C76.1994 111.903 79.962 108.283 82.8108 106.157C86.453 103.44 86.597 101.109 90.3832 98.585C92.7744 96.9908 92.7436 96.0897 94.1694 98.585C99.2177 107.419 93.9294 118.1 96.6936 127.613C98.1748 132.71 97.4946 140.124 103.004 140.233C106.557 140.304 109.01 137.337 111.838 135.185C119.411 126.351 121.935 114.992 129.507 113.73C132.032 121.302 125.467 128.377 123.197 135.185C121.935 138.971 121.426 151.292 124.459 159.165C125.228 161.159 127.828 163.295 125.721 166.737C121.935 167.999 121.134 168.727 118.149 166.737C110.576 161.689 111.683 163.139 105.528 159.164C99.2216 155.092 94.1694 147.127 89.1211 149.068C85.3349 152.854 85.6584 167.735 87.8591 179.358C92.9074 193.24 99.6351 199.266 103.004 213.434C105.75 224.982 99.55 233.469 105.528 243.723C107.243 246.665 110.461 250.048 112.504 252.056C112.897 252.443 113.519 251.997 113.295 251.492C112.024 248.613 109.987 243.641 109.314 239.937C108.561 235.784 108.104 233.842 109.124 229.373C109.222 228.944 109.671 228.699 110.063 228.899C112.778 230.278 116.769 234.376 119.002 236.806C119.375 237.211 120.067 236.81 119.896 236.288C118.663 232.509 116.208 225.036 114.363 219.744C111.077 210.32 110.672 204.959 106.79 195.765C104.045 189.264 103.004 188.192 99.2177 181.882C97.6963 179.346 95.6596 174.556 96.6936 171.785C100.48 167.999 107.502 177.313 113.101 183.144C116.928 187.13 124.042 195.933 129.58 196.888C129.729 196.913 129.86 196.796 129.864 196.644C129.971 193.084 132.032 189.454 132.032 189.454C132.032 189.454 128.885 207.141 133.294 215.958C136.411 222.192 139.388 226.131 145.914 228.579C151.452 230.655 155.811 231.306 161.059 228.579C166.762 225.615 165.309 219.199 169.894 214.696C173.697 210.96 176.572 209.675 181.252 207.123C185.514 204.8 188.328 204.359 192.611 202.075C196.714 199.887 199.188 198.803 202.708 195.765C206.147 192.795 205.889 188.098 210.28 186.93C217.961 184.888 213.748 199.232 212.804 207.123C211.934 214.399 206.494 224.792 206.494 224.792C206.494 224.792 200.055 233.842 196.397 239.937C194.675 242.807 192.596 246.643 191.052 249.556C190.769 250.09 191.616 250.673 192.037 250.238C195.152 247.021 199.819 242.916 202.708 243.723C206.297 244.726 207.188 252.9 200.154 263.423C199.859 263.865 200.348 264.41 200.805 264.139C215.361 255.486 206.386 244.861 212.804 233.627C217.212 225.912 222.074 222.925 225.425 214.696C231.745 199.175 237.033 183.871 225.425 171.785L225.289 171.644C223.184 169.451 221.887 168.101 219.115 166.737C208.828 161.677 202.36 173.326 192.611 179.358C189.589 181.228 188.529 183.737 185.039 184.406C176.38 186.067 187.637 171.785 174.942 164.213C168.945 160.636 162.888 158.031 155.922 159.454C155.087 159.625 154.302 158.315 154.971 157.787C157.05 156.143 158.074 156.661 164.213 158.298C166.1 158.802 162.679 142.384 164.845 133.923C166.338 128.095 169.803 127.203 168.632 121.302C168.203 119.14 169.052 117.516 169.894 114.992C170.735 112.468 176.204 107.42 186.301 99.8471C192.611 109.944 188.825 118.778 201.446 123.826C205.232 121.302 210.7 119.625 211.542 113.73C212.804 104.895 211.542 97.323 212.804 91.0126C216.591 92.2747 216.591 96.0609 220.377 98.5851C224.888 101.592 225.378 107.467 229.211 103.633C231.735 101.109 225.425 85.9643 216.591 77.1298C213.802 74.3418 210.241 74.6409 206.494 75.8677C205.232 85.9643 206.494 97.323 202.708 106.158C191.349 93.5368 196.397 84.7022 187.563 79.654C181.252 82.1781 178.728 88.4885 169.894 91.0126C164.845 79.654 159.797 80.916 153.487 77.1298C153.487 64.5091 152.225 63.247 149.701 51.8884C148.413 46.0947 140.866 40.5296 135.818 36.7434C128.245 39.2676 125.461 42.8093 124.459 49.3641C123.658 54.6116 125.721 55.6745 128.245 60.7228C128.81 61.8516 132.537 64.6187 137.08 64.509Z" fill="#1C4766" stroke="#1C4766" stroke-width="0.251667"/>
<path d="M148.483 181.2C156.914 181.2 157.273 188.192 159.797 191.979C164.845 186.93 165.287 185.037 169.893 185.668C173.707 186.191 175.787 188.514 177.466 191.979C179.853 196.906 177.62 200.977 174.993 205.768L174.942 205.861C172.596 210.139 171.511 208.631 168.153 212.172C164.069 216.478 161.752 224.551 156.011 226.054C152.167 227.061 149.438 226.628 145.914 224.792C141.543 222.515 139.682 220.349 137.158 215.301C134.634 210.253 134.217 199.713 135.9 194.664C137.583 189.616 139.172 181.2 148.483 181.2Z" fill="#FAF8F2" stroke="#FAF8F2" stroke-width="0.251667"/>
<path d="M152.02 215.935C151.705 216.25 151.218 216.356 150.663 216.246C150.11 216.137 149.507 215.814 148.99 215.299C148.472 214.783 148.148 214.181 148.036 213.628C147.924 213.075 148.028 212.587 148.343 212.271C148.657 211.955 149.145 211.849 149.699 211.959C150.252 212.069 150.856 212.391 151.373 212.907C151.89 213.422 152.215 214.024 152.327 214.577C152.438 215.131 152.335 215.619 152.02 215.935Z" fill="#1C4766" stroke="#1C4766" stroke-width="0.251667"/>
<path d="M155.752 198.75C155.197 199.335 154.251 199.479 153.135 199.192C152.023 198.908 150.772 198.202 149.652 197.137C148.532 196.072 147.763 194.859 147.422 193.763C147.08 192.663 147.175 191.711 147.731 191.126C148.286 190.542 149.232 190.398 150.349 190.684C151.46 190.969 152.711 191.675 153.831 192.74C154.951 193.805 155.72 195.018 156.061 196.114C156.403 197.214 156.308 198.166 155.752 198.75Z" fill="#1C4766" stroke="#1C4766" stroke-width="0.251667"/>
<path d="M158.986 214.437C159.142 214.865 159.028 215.361 158.687 215.825C158.347 216.288 157.788 216.705 157.09 216.959C156.391 217.214 155.694 217.253 155.136 217.117C154.577 216.981 154.171 216.674 154.015 216.247C153.86 215.819 153.973 215.323 154.314 214.859C154.654 214.396 155.213 213.979 155.912 213.724C156.611 213.47 157.307 213.431 157.865 213.567C158.425 213.703 158.831 214.01 158.986 214.437Z" fill="#1C4766" stroke="#1C4766" stroke-width="0.251667"/>
<path d="M172.372 196.17C172.635 196.893 172.347 197.768 171.607 198.61C170.871 199.449 169.708 200.229 168.29 200.746C166.871 201.262 165.479 201.412 164.376 201.242C163.268 201.072 162.484 200.587 162.221 199.865C161.958 199.142 162.247 198.266 162.986 197.424C163.722 196.585 164.885 195.805 166.304 195.289C167.722 194.772 169.115 194.623 170.218 194.792C171.325 194.962 172.109 195.447 172.372 196.17Z" fill="#1C4766" stroke="#1C4766" stroke-width="0.251667"/>
</svg>
