<svg width="1440" height="393" viewBox="0 0 1440 393" fill="none" xmlns="http://www.w3.org/2000/svg">
<path d="M0 274.1L40 287.241C80 299.891 160 326.909 240 333.05C320 339.191 400 326.909 480 287.241C560 248.309 640 181.991 720 149.691C800 116.9 880 116.9 960 149.691C1040 181.991 1120 248.309 1200 280.609C1280 313.4 1360 313.4 1400 313.4H1440V392H1400C1360 392 1280 392 1200 392C1120 392 1040 392 960 392C880 392 800 392 720 392C640 392 560 392 480 392C400 392 320 392 240 392C160 392 80 392 40 392H0V274.1Z" fill="#FAF4E5"/>
</svg>
