<svg width="525" height="504" viewBox="0 0 525 504" fill="none" xmlns="http://www.w3.org/2000/svg">
<path d="M523.644 404.92C495.222 410.604 431.772 420.267 405.34 413.446C372.3 404.92 290.234 381.472 287.037 368.683M287.037 368.683C283.839 355.893 280.642 340.972 262.523 335.643C244.405 330.314 145.286 235.458 150.615 206.682C153.304 192.161 156.134 188.467 158.303 188.967C160.068 189.374 162.559 189.866 163.268 188.199C173.492 164.162 189.51 121.674 184.72 112.891C178.325 101.168 161.273 63.8647 161.273 55.3384C161.273 46.812 171.931 25.496 161.273 23.3644C150.615 21.2328 137.825 21.2328 144.22 38.2856C150.615 55.3383 161.273 74.5227 161.273 88.3781C161.273 102.233 171.931 127.813 161.273 138.471C150.615 149.129 152.746 166.181 144.22 165.116C135.693 164.05 137.825 138.471 127.167 138.471C116.509 138.471 98.3905 136.339 96.2589 133.142C94.1273 129.944 80.2719 144.865 79.2061 152.326C78.1403 159.787 79.2061 170.445 72.8113 165.116C66.4165 159.787 44.0348 123.549 45.1006 102.233C46.1664 80.9175 32.311 42.5488 30.1794 32.9566C28.0478 23.3644 38.7058 8.44328 30.1794 5.24589C21.6531 2.0485 -0.728712 -0.0830967 3.53448 5.24589C7.79767 10.5749 28.0478 28.6934 23.7846 38.2856C19.5214 47.8778 23.7846 131.01 26.982 141.668C30.1794 152.326 57.8901 217.34 65.3507 216.274C71.3192 215.421 81.3377 227.998 85.6009 234.392C93.772 256.419 114.804 301.324 133.562 304.735C157.009 308.998 201.773 349.498 202.839 368.683C203.904 387.867 218.826 420.907 229.484 426.236C240.142 431.565 265.721 446.486 287.037 449.684C304.089 452.241 316.168 464.249 320.076 469.934C331.445 481.302 354.821 503.613 357.379 501.908C360.577 499.776 363.774 492.315 357.379 485.921C350.984 479.526 333.932 473.131 329.669 464.605C325.405 456.078 323.274 447.552 314.747 446.486C306.221 445.42 264.655 425.17 258.26 413.446C251.865 401.723 226.286 370.814 240.142 361.222C248.668 379.341 261.457 398.525 265.721 398.525C269.984 398.525 278.51 414.512 292.366 415.578C306.221 416.644 338.195 439.026 339.261 441.157C340.326 443.289 375.498 478.46 379.761 477.394C384.024 476.328 388.287 468.868 384.024 466.736C379.761 464.605 358.445 446.486 357.379 443.289C356.527 440.731 353.471 435.828 352.05 433.697C347.077 433.341 336.703 431.991 334.998 429.433C332.866 426.236 299.826 404.92 298.76 401.723C297.908 399.165 295.563 395.683 294.497 394.262H292.366C288.458 389.288 281.281 378.701 283.839 376.143C286.397 373.586 287.037 370.104 287.037 368.683Z" stroke="#1C4766" stroke-width="4"/>
</svg>
