<svg width="508" height="504" viewBox="0 0 508 504" fill="none" xmlns="http://www.w3.org/2000/svg">
<path d="M502.093 408.216C471.296 414.531 426.004 415.582 405.34 410.249C372.3 401.723 290.234 381.472 287.037 368.683C287.037 370.104 286.397 373.586 283.839 376.143C281.281 378.701 288.458 389.288 292.366 394.262H294.497C295.563 395.683 297.908 399.165 298.76 401.723C299.826 404.92 332.866 426.236 334.997 429.433C336.703 431.991 347.077 433.341 352.05 433.697C353.471 435.828 356.527 440.731 357.379 443.289C358.445 446.486 379.761 464.605 384.024 466.736C388.287 468.868 384.024 476.328 379.761 477.394C375.498 478.46 340.326 443.289 339.261 441.157C338.195 439.026 306.221 416.644 292.366 415.578C278.51 414.512 269.984 398.525 265.721 398.525C261.457 398.525 248.668 379.341 240.142 361.222C226.286 370.815 251.865 401.723 258.26 413.446C264.655 425.17 306.221 445.42 314.747 446.486C323.274 447.552 325.405 456.078 329.669 464.605C333.932 473.131 350.984 479.526 357.379 485.921C363.774 492.315 360.577 499.776 357.379 501.908C354.821 503.613 331.445 481.302 320.076 469.934C316.168 464.249 304.089 452.241 287.037 449.684C265.721 446.486 240.142 431.565 229.484 426.236C218.826 420.907 203.904 387.867 202.839 368.683C201.773 349.498 157.009 308.998 133.562 304.735C114.804 301.324 93.772 256.419 85.6009 234.392C81.3377 227.998 71.3192 215.421 65.3507 216.274C57.8901 217.34 30.1794 152.326 26.982 141.668C23.7846 131.01 19.5214 47.8778 23.7846 38.2856C28.0478 28.6934 7.79767 10.5749 3.53448 5.24589C-0.728712 -0.0830967 21.6531 2.0485 30.1794 5.24589C38.7058 8.44328 28.0478 23.3644 30.1794 32.9566C32.311 42.5488 46.1664 80.9175 45.1006 102.233C44.0348 123.549 66.4165 159.787 72.8113 165.116C79.2061 170.445 78.1403 159.787 79.2061 152.326C80.2719 144.865 94.1273 129.944 96.2589 133.142C98.3905 136.339 116.509 138.471 127.167 138.471C137.825 138.471 135.693 164.05 144.22 165.116C152.746 166.181 150.615 149.129 161.273 138.471C171.931 127.813 161.273 102.233 161.273 88.3781C161.273 74.5227 150.615 55.3383 144.22 38.2856C137.825 21.2328 150.615 21.2328 161.273 23.3644C171.931 25.496 161.273 46.812 161.273 55.3384C161.273 63.8647 178.325 101.168 184.72 112.891C189.51 121.674 173.492 164.162 163.268 188.199C162.559 189.866 160.068 189.374 158.303 188.967C156.134 188.467 153.304 192.161 150.615 206.682C145.286 235.458 244.405 330.314 262.523 335.643C275.318 339.406 280.672 347.952 283.839 357.153C284.429 358.865 284.943 360.6 285.414 362.332C297.195 377.867 368.723 395.403 410.5 405.5C449.379 411.937 477.144 406.502 501.173 403.452C506.481 402.778 507.335 407.142 502.093 408.216Z" fill="#1C4766"/>
<path d="M287.037 368.683C290.234 381.472 372.3 401.723 405.34 410.249C426.004 415.582 471.296 414.531 502.093 408.216C507.335 407.142 506.481 402.778 501.173 403.452C477.144 406.502 449.379 411.937 410.5 405.5C364 394.262 280.642 373.806 283.839 357.153M287.037 368.683C287.037 370.104 286.397 373.586 283.839 376.143C281.281 378.701 288.458 389.288 292.366 394.262H294.497C295.563 395.683 297.908 399.165 298.76 401.723C299.826 404.92 332.866 426.236 334.997 429.433C336.703 431.991 347.077 433.341 352.05 433.697C353.471 435.828 356.527 440.731 357.379 443.289C358.445 446.486 379.761 464.605 384.024 466.736C388.287 468.868 384.024 476.328 379.761 477.394C375.498 478.46 340.326 443.289 339.261 441.157C338.195 439.026 306.221 416.644 292.366 415.578C278.51 414.512 269.984 398.525 265.721 398.525C261.457 398.525 248.668 379.341 240.142 361.222C226.286 370.814 251.865 401.723 258.26 413.446C264.655 425.17 306.221 445.42 314.747 446.486C323.274 447.552 325.405 456.078 329.669 464.605C333.932 473.131 350.984 479.526 357.379 485.921C363.774 492.315 360.577 499.776 357.379 501.908C354.821 503.613 331.445 481.302 320.076 469.934C316.168 464.249 304.089 452.241 287.037 449.684C265.721 446.486 240.142 431.565 229.484 426.236C218.826 420.907 203.904 387.867 202.839 368.683C201.773 349.498 157.009 308.998 133.562 304.735C114.804 301.324 93.772 256.419 85.6009 234.392C81.3377 227.998 71.3192 215.421 65.3507 216.274C57.8901 217.34 30.1794 152.326 26.982 141.668C23.7846 131.01 19.5214 47.8778 23.7846 38.2856C28.0478 28.6934 7.79767 10.5749 3.53448 5.24589C-0.728712 -0.0830967 21.6531 2.0485 30.1794 5.24589C38.7058 8.44328 28.0478 23.3644 30.1794 32.9566C32.311 42.5488 46.1664 80.9175 45.1006 102.233C44.0348 123.549 66.4165 159.787 72.8113 165.116C79.2061 170.445 78.1403 159.787 79.2061 152.326C80.2719 144.865 94.1273 129.944 96.2589 133.142C98.3905 136.339 116.509 138.471 127.167 138.471C137.825 138.471 135.693 164.05 144.22 165.116C152.746 166.181 150.615 149.129 161.273 138.471C171.931 127.813 161.273 102.233 161.273 88.3781C161.273 74.5227 150.615 55.3383 144.22 38.2856C137.825 21.2328 150.615 21.2328 161.273 23.3644C171.931 25.496 161.273 46.812 161.273 55.3384C161.273 63.8647 178.325 101.168 184.72 112.891C189.51 121.674 173.492 164.162 163.268 188.199C162.559 189.866 160.068 189.374 158.303 188.967C156.134 188.467 153.304 192.161 150.615 206.682C145.286 235.458 244.405 330.314 262.523 335.643C275.318 339.406 280.672 347.952 283.839 357.153M287.037 368.683C286.097 364.924 285.157 360.982 283.839 357.153" stroke="#1C4766" stroke-width="4"/>
</svg>
