<svg width="677" height="362" viewBox="0 0 677 362" fill="none" xmlns="http://www.w3.org/2000/svg">
<path d="M3.79483 5.31496C51.5592 -10.8213 158.824 36.3079 177.335 53.136C199.23 73.0411 257.887 120.955 287.877 127.6C293.341 126.561 299.347 127.167 299.262 127.602C318.382 122.727 350.309 133.956 364.064 140.276C398.015 155.875 435.135 171.964 447.81 167.437C463.653 161.779 512.316 178.754 523.633 178.754C535.874 178.754 554.189 167.437 557.584 167.437C560.979 167.437 579.982 162.226 590.403 167.437C599.457 171.964 608.51 178.754 610.774 195.729C612.541 208.985 617.438 211.723 621.413 212.467C622.43 212.657 623.222 213.497 623.125 214.526C622.175 224.538 614.39 249.527 603.983 245.524C589.271 239.866 575.691 264.763 571.164 259.104C566.638 253.446 577.954 304.372 588.14 305.504C596.288 306.409 610.396 314.18 624.354 329.269C635.294 325.874 660.115 322.479 671.885 336.059C686.597 353.035 639.519 331.533 636.803 340.586C634.086 349.64 618.318 341.341 610.774 336.059C596.062 328.137 574.107 317.047 567.769 317.952C559.847 319.084 519.106 257.973 515.711 264.763C512.316 271.553 502.131 304.372 507.789 311.162C513.448 317.952 520.238 346.245 529.292 345.113C538.345 343.981 570.033 354.166 565.506 358.693C560.979 363.22 534.95 354.166 529.292 358.693C523.633 363.22 479.497 314.557 481.76 305.504C484.024 296.45 490.115 250.75 481.76 259.104C478.365 262.499 466.943 259.104 451.099 259.104C436.385 259.104 357.343 213.23 337.081 192.185C336.304 191.378 334.273 192.315 334.411 193.426C336.996 214.206 336.843 261.693 325.587 264.763C313.138 268.158 284.846 280.607 284.846 295.319C284.846 309.021 321.167 319.778 335.296 333.075C336.504 334.213 335.63 336.032 333.975 335.913C309.741 334.175 289.198 317.299 265.607 305.504C274.66 264.763 291.636 253.446 298.426 245.524C312.126 229.541 310.497 212.705 304.084 195.729C281.45 207.046 270.134 205.915 270.134 226.285C242.445 243.905 187.52 256.841 185.256 267.026C182.993 277.211 162.622 311.162 142.252 311.162C136.593 311.162 162.623 273.816 162.623 267.026C162.623 260.236 203.364 247.787 209.022 239.866C212.311 235.261 223.031 219.561 237.314 212.705C265.607 199.125 246.31 185.252 258.817 171.964C276.924 152.725 279.187 144.803 279.187 134.618C245.236 119.079 185.191 81.85 177.335 67C170.397 53.8867 70.7163 10.4498 4.93913 9.80768C1.88642 9.77788 0.902565 6.29206 3.79483 5.31496Z" fill="#1C4766"/>
<path d="M298.426 127.828C274.66 134.618 202.232 75.7699 177.335 53.136C158.824 36.3079 51.5592 -10.8213 3.79483 5.31496C0.902565 6.29205 1.88642 9.77788 4.93913 9.80768C70.7163 10.4498 170.397 53.8867 177.335 67C185.191 81.85 245.236 119.079 279.187 134.618M298.426 127.828C317.438 122.396 350.107 133.863 364.064 140.276C398.015 155.875 435.135 171.964 447.81 167.437C463.653 161.779 512.316 178.754 523.633 178.754C535.874 178.754 554.189 167.437 557.584 167.437C560.979 167.437 579.982 162.226 590.403 167.437C599.457 171.964 608.51 178.754 610.774 195.729C612.541 208.985 617.438 211.723 621.413 212.467C622.43 212.657 623.222 213.497 623.125 214.526C622.175 224.538 614.39 249.527 603.983 245.524C589.271 239.866 575.691 264.763 571.164 259.104C566.638 253.446 577.954 304.372 588.14 305.504C596.288 306.409 610.396 314.18 624.354 329.269C635.294 325.874 660.116 322.479 671.885 336.059C686.597 353.035 639.519 331.533 636.803 340.586C634.086 349.64 618.318 341.341 610.774 336.059C596.062 328.137 574.107 317.047 567.769 317.952C559.847 319.084 519.106 257.973 515.711 264.763C512.316 271.553 502.131 304.372 507.789 311.162C513.448 317.952 520.238 346.245 529.292 345.113C538.345 343.981 570.033 354.166 565.506 358.693C560.979 363.22 534.95 354.166 529.292 358.693C523.633 363.22 479.497 314.557 481.76 305.504C484.024 296.45 490.115 250.75 481.76 259.104C478.365 262.499 466.943 259.104 451.099 259.104C436.385 259.104 357.343 213.23 337.081 192.185C336.304 191.378 334.273 192.315 334.411 193.426C336.996 214.206 336.843 261.693 325.587 264.763C313.138 268.158 284.846 280.607 284.846 295.319C284.846 309.021 321.167 319.778 335.296 333.075C336.504 334.213 335.63 336.032 333.975 335.913C309.741 334.175 289.198 317.299 265.607 305.504C274.66 264.763 291.636 253.446 298.426 245.524C312.126 229.541 310.497 212.705 304.084 195.729C281.45 207.046 270.134 205.915 270.134 226.285C242.445 243.905 187.52 256.841 185.256 267.026C182.993 277.211 162.623 311.162 142.252 311.162C136.593 311.162 162.623 273.816 162.623 267.026C162.623 260.236 203.364 247.787 209.022 239.866C212.311 235.261 223.031 219.561 237.314 212.705C265.607 199.125 246.31 185.252 258.817 171.964C276.924 152.725 279.187 144.803 279.187 134.618M298.426 127.828C304.084 127.232 279.187 124.433 279.187 134.618" stroke="#1C4766" stroke-width="4"/>
</svg>
