<svg xmlns="http://www.w3.org/2000/svg" width="584" height="490" fill="none" viewBox="0 0 584 490"><path fill="#1C4766" d="M7.04254 4.90133C22.1157 49.2693 27.0303 120.886 45.5025 137.679C71.8461 161.628 124.533 215.512 149.679 208.328C169.796 202.58 204.362 214.714 219.13 221.5C247.47 246.646 307.501 295.741 320.912 290.951C337.676 284.964 368.81 280.174 375.994 290.951C383.179 301.728 410.72 290.951 414.312 290.951C417.905 290.951 452.63 280.174 458.617 290.951C464.604 301.728 475.381 296.938 472.987 317.294C471.071 333.579 479.373 338.449 483.763 338.848C483.763 347.629 480.65 365.671 468.197 367.587C452.63 369.982 443.051 379.561 438.261 373.574C433.471 367.587 462.21 421.471 472.987 422.669C481.608 423.627 513.3 455.798 528.068 471.763C539.644 468.171 565.907 464.579 578.361 478.948C593.927 496.91 544.833 471.763 541.24 483.738C538.366 493.317 521.682 484.536 513.699 478.948C498.133 470.566 465.323 454.041 458.617 454.999C450.235 456.197 404.733 399.917 401.14 407.102C397.548 414.287 381.982 420.274 387.969 427.458C393.956 434.643 410.72 465.776 420.299 464.579C429.879 463.381 463.407 474.158 458.617 478.948C453.828 483.738 426.287 474.158 420.299 478.948C414.312 483.738 341.269 432.248 343.664 422.669C346.058 413.089 364.02 399.917 375.994 396.325C387.969 392.733 354.441 396.325 337.676 396.325C323.066 396.325 241.148 330.837 222.722 311.634C229.886 328.28 243.048 379.025 232.302 381.956C219.13 385.548 159.259 391.535 159.259 407.102C159.259 422.669 184.405 454.999 189.195 454.999C193.984 454.999 189.195 464.579 178.418 459.789C167.641 454.999 161.654 437.038 155.666 439.433C150.877 441.349 136.108 405.905 129.323 387.943C148.083 385.149 184.884 378.364 182.01 373.574C178.418 367.587 96.9922 331.664 94.5973 342.441C92.2024 353.217 64.6614 397.522 57.4768 392.733C50.2922 387.943 57.4768 379.561 61.0691 373.574C64.4262 367.979 92.8807 323.692 91.7071 317.915C90.7022 317.519 90.4097 317.294 91.005 317.294C91.3971 317.294 91.6249 317.51 91.7071 317.915C100.809 321.499 168.362 339.093 164.048 330.466C159.259 320.887 138.902 294.543 136.507 275.384C134.113 256.225 149.679 249.041 149.679 238.264C149.679 233.574 150.813 227.177 151.601 221.5C136.201 229.999 45.5025 149 35.5 148C28.3294 147.283 12.3285 61.9308 2.96517 6.06541C2.40338 2.71358 5.9493 1.68339 7.04254 4.90133Z"/><path stroke="#1C4766" stroke-width="4" d="M149.679 208.328C124.533 215.513 71.8461 161.628 45.5025 137.679C27.0303 120.886 22.1157 49.2693 7.04254 4.90134C5.9493 1.68339 2.40338 2.71358 2.96517 6.06541C12.3285 61.9308 28.3294 147.283 35.5 148C45.5025 149 136.201 229.999 151.601 221.5M149.679 208.328C169.796 202.58 204.362 214.714 219.13 221.5C247.47 246.646 307.501 295.741 320.912 290.951C337.676 284.964 368.81 280.174 375.994 290.951C383.179 301.728 410.72 290.951 414.312 290.951C417.905 290.951 452.63 280.174 458.617 290.951C464.604 301.728 475.381 296.938 472.987 317.294C471.071 333.58 479.373 338.449 483.763 338.848C483.763 347.629 480.65 365.671 468.197 367.587C452.63 369.982 443.051 379.561 438.261 373.574C433.471 367.587 462.21 421.471 472.987 422.669C481.608 423.627 513.3 455.798 528.068 471.763C539.644 468.171 565.907 464.579 578.361 478.948C593.927 496.91 544.833 471.763 541.24 483.738C538.366 493.317 521.682 484.536 513.699 478.948C498.133 470.566 465.323 454.041 458.617 454.999C450.235 456.197 404.733 399.917 401.14 407.102C397.548 414.287 381.982 420.274 387.969 427.458C393.956 434.643 410.72 465.776 420.299 464.579C429.879 463.381 463.407 474.158 458.617 478.948C453.828 483.738 426.287 474.158 420.299 478.948C414.312 483.738 341.269 432.248 343.664 422.669C346.058 413.089 364.02 399.917 375.994 396.325C387.969 392.733 354.441 396.325 337.676 396.325C320.912 396.325 215.538 310.11 219.13 306.517C222.723 302.925 245.474 378.364 232.302 381.956C219.13 385.548 159.259 391.535 159.259 407.102C159.259 422.669 184.405 454.999 189.195 454.999C193.984 454.999 189.195 464.579 178.418 459.789C167.641 454.999 161.654 437.038 155.666 439.433C150.877 441.349 136.108 405.905 129.323 387.943C148.083 385.149 184.884 378.364 182.01 373.574C178.418 367.587 96.9922 331.664 94.5973 342.441C92.2024 353.217 64.6614 397.522 57.4768 392.733C50.2922 387.943 57.4768 379.561 61.0691 373.574C64.6614 367.587 96.9922 317.294 91.005 317.294C85.0178 317.294 168.838 340.046 164.048 330.466C159.259 320.887 138.902 294.543 136.507 275.384C134.113 256.225 149.679 249.041 149.679 238.264C149.679 233.574 150.813 227.177 151.601 221.5M149.679 208.328C153.061 207.972 152.623 214.13 151.601 221.5"/></svg>