<svg width="359" height="670" viewBox="0 0 359 670" fill="none" xmlns="http://www.w3.org/2000/svg">
<path d="M306.643 29.6731C307.054 17.7096 304.172 -4.2373 289.347 3.68338C270.816 13.5842 257.227 16.0594 253.521 44.5243C249.815 72.9893 268.346 129.919 260.933 144.77C253.521 159.622 253.521 268.531 242.402 271.006M242.402 271.006C231.284 273.481 289.347 290.808 289.347 309.372C289.347 327.936 289.347 414.568 297.995 425.707C306.643 436.845 328.88 499.963 347.411 495.013C365.942 490.062 347.411 524.715 347.411 545.755C347.411 556.884 351.371 565.379 355.364 570.813C356.063 571.764 356.504 571.333 355.746 570.429L335.057 545.755C339.175 541.217 344.94 528.428 335.057 513.577C322.703 495.013 279.464 462.835 276.993 454.172C274.522 445.509 246.108 387.341 253.521 379.916C260.933 372.49 231.284 393.529 242.402 414.568C253.521 435.608 236.225 495.013 225.107 495.013C213.988 495.013 181.868 538.329 173.22 525.953C164.573 513.577 134.923 590.309 141.1 594.021C147.277 597.734 48.4456 653.426 37.327 644.763C26.2085 636.1 26.2085 674.466 12.6192 667.04C-0.970131 659.614 0.265262 628.674 6.44223 631.149C12.6192 633.625 57.0933 632.387 59.5641 622.486C62.0349 612.585 104.038 594.021 105.274 535.854C105.274 518.032 110.215 513.577 112.686 513.577C106.921 517.702 93.1668 525.953 84.272 525.953C73.1534 525.953 59.5641 521.003 63.2703 512.339C66.9765 503.676 66.9765 493.775 63.2703 488.825C59.5641 483.874 52.1518 473.974 53.3872 464.073C54.6226 454.172 52.1518 435.608 75.6242 430.657C99.0967 425.707 115.157 434.37 118.863 439.321C122.569 444.271 126.275 454.172 125.04 454.172C123.805 454.172 138.629 425.707 155.925 425.707C169.761 425.707 189.692 368.777 197.928 340.312C204.105 320.51 218.189 279.917 225.107 275.957L242.402 271.006Z" stroke="#1C4766" stroke-width="4"/>
</svg>
