<svg xmlns="http://www.w3.org/2000/svg" width="579" height="357" fill="none" viewBox="0 0 579 357"><path fill="#1C4766" d="M3.84878 10.7356C34.5696 -10.1303 105.239 14.6717 124.815 32.4682C151.343 56.5846 224.898 116.875 250.221 109.64C270.478 103.852 305.287 116.071 320.158 122.904C348.696 148.227 364.533 137.374 378.038 132.551C394.919 126.522 457.622 121.699 464.857 132.551C472.092 143.403 503.443 127.728 507.061 127.728C510.678 127.728 545.647 116.875 551.676 127.728C557.705 138.58 568.557 133.757 566.146 154.256C564.217 170.655 572.577 175.559 576.998 175.96C576.998 184.803 573.863 202.971 561.323 204.9C545.647 207.312 536 216.958 531.177 210.929C526.354 204.9 497.414 272.427 508.266 273.632C516.948 274.597 557.303 306.993 572.175 323.071C583.831 319.453 549.264 347.187 531.177 350.805C507.707 355.499 533.95 345.358 537.206 334.506C540.1 324.859 559.715 328.698 551.676 323.071C536 314.63 505.372 289.549 498.62 290.514C490.179 291.72 462.445 257.956 458.828 265.191C455.21 272.426 439.535 278.455 445.564 285.69C451.593 292.925 439.579 310.657 433.506 318.248C423.859 330.306 415.235 322.447 408 334.506C404.491 340.355 402 332.5 394.919 334.506C387.49 336.61 414.212 295.337 416.624 285.69C419.036 276.044 421.447 257.956 433.506 254.339C445.564 250.721 411.801 254.339 394.919 254.339C378.038 254.339 346.686 227.811 333.422 225.4C320.158 222.988 392.998 252 386.478 265.191C379.959 278.383 398.095 300.641 388.506 323.071C379.402 344.365 421.38 335.532 442.394 348.533C443.781 349.39 443.35 351.289 441.728 351.462C426.707 353.064 397.937 347.413 388.11 353.183C387.04 353.812 385.705 354.119 384.705 353.384C375.389 346.534 373.343 321.849 368.391 318.248C355.127 308.601 349.902 295.337 343.069 277.25C324.982 273.632 324.403 268.882 320.158 265.191C305.688 252.612 304.852 310.824 314.498 326.5C327.534 323.778 381.823 353.847 366.438 354.414C366.164 354.424 365.843 354.363 365.591 354.254C320.011 334.565 294.011 344.938 298.454 323.071C292.424 304.983 283.984 315.836 279.16 290.514C274.337 265.192 277.955 243.487 273.131 233.84C268.308 224.194 239.368 196.459 236.957 177.166C234.545 157.873 250.221 150.638 250.221 139.786C250.221 135.063 251.362 128.622 252.155 122.904C215.77 110.936 142.012 64.61 119.5 41C97.5987 18.0308 43.2931 14.524 6.28206 16.395C2.77226 16.5724 0.941665 12.7101 3.84878 10.7356Z"/><path stroke="#1C4766" stroke-width="4" d="M250.221 109.64C224.898 116.875 151.343 56.5846 124.815 32.4682C105.239 14.6717 34.5696 -10.1303 3.84879 10.7356C0.941665 12.7101 2.77226 16.5724 6.28206 16.395C43.2931 14.524 97.5987 18.0308 119.5 41C142.012 64.61 215.77 110.936 252.155 122.904M250.221 109.64C270.478 103.852 305.287 116.071 320.158 122.904C348.696 148.227 364.533 137.374 378.038 132.551C394.919 126.522 457.622 121.699 464.857 132.551C472.092 143.403 503.443 127.728 507.061 127.728C510.678 127.728 545.647 116.875 551.676 127.728C557.705 138.58 568.558 133.757 566.146 154.256C564.217 170.655 572.577 175.559 576.998 175.96C576.998 184.803 573.863 202.971 561.323 204.9C545.647 207.312 536 216.958 531.177 210.929C526.354 204.9 497.414 272.427 508.266 273.632C516.948 274.597 557.303 306.993 572.175 323.071C583.831 319.453 549.264 347.187 531.177 350.805C507.707 355.499 533.95 345.358 537.206 334.506C540.1 324.859 559.715 328.698 551.676 323.071C536 314.63 505.372 289.549 498.62 290.514C490.179 291.72 462.445 257.956 458.828 265.191C455.21 272.426 439.535 278.455 445.564 285.69C451.593 292.925 439.579 310.657 433.506 318.248C423.859 330.306 415.235 322.447 408 334.506C404.491 340.355 402 332.5 394.919 334.506C387.49 336.61 414.212 295.337 416.624 285.69C419.036 276.044 421.447 257.956 433.506 254.339C445.564 250.721 411.801 254.339 394.919 254.339C378.038 254.339 346.686 227.811 333.422 225.4C320.158 222.988 392.998 252 386.478 265.191C379.959 278.383 398.095 300.641 388.506 323.071C379.402 344.365 421.38 335.532 442.394 348.533C443.781 349.39 443.35 351.289 441.728 351.462C426.707 353.064 397.937 347.413 388.11 353.183C387.04 353.812 385.705 354.119 384.705 353.384C375.389 346.534 373.343 321.849 368.391 318.248C355.127 308.601 349.902 295.337 343.069 277.25C324.982 273.632 324.403 268.882 320.158 265.191C305.688 252.612 304.852 310.824 314.498 326.5C327.534 323.778 381.823 353.847 366.438 354.414C366.164 354.424 365.843 354.363 365.591 354.254C320.011 334.565 294.011 344.938 298.454 323.071C292.424 304.983 283.984 315.836 279.16 290.514C274.337 265.192 277.955 243.487 273.131 233.84C268.308 224.194 239.368 196.459 236.957 177.166C234.545 157.873 250.221 150.638 250.221 139.786C250.221 135.063 251.362 128.622 252.155 122.904M250.221 109.64C253.626 109.282 253.185 115.484 252.155 122.904"/></svg>