<svg width="685" height="362" viewBox="0 0 685 362" fill="none" xmlns="http://www.w3.org/2000/svg">
<path d="M2 10.1318C42.741 -18.1606 165.417 35.0289 185.335 53.136C210.232 75.7699 282.66 134.618 306.426 127.828M306.426 127.828C325.438 122.396 358.107 133.863 372.064 140.276C406.015 155.875 443.135 171.964 455.81 167.437C471.653 161.779 520.316 178.754 531.633 178.754C543.874 178.754 562.189 167.437 565.584 167.437C568.979 167.437 587.982 162.226 598.403 167.437C607.457 171.964 616.51 178.754 618.774 195.73C620.541 208.985 625.438 211.723 629.413 212.467C630.43 212.657 631.222 213.497 631.125 214.526C630.175 224.538 622.39 249.527 611.983 245.524C597.271 239.866 583.691 264.763 579.164 259.104C574.638 253.446 585.954 304.372 596.14 305.504C604.288 306.409 618.396 314.18 632.354 329.269C643.294 325.874 668.115 322.479 679.885 336.059C694.597 353.035 647.519 331.533 644.803 340.586C642.087 349.64 626.318 341.341 618.774 336.059C604.062 328.137 582.107 317.047 575.769 317.952C567.847 319.084 527.106 257.973 523.711 264.763C520.316 271.553 510.131 304.372 515.789 311.162C521.448 317.952 528.238 346.245 537.292 345.113C546.345 343.981 578.033 354.166 573.506 358.693C568.979 363.22 542.95 354.166 537.292 358.693C531.633 363.22 487.497 314.557 489.76 305.504C492.024 296.45 498.115 250.75 489.76 259.104C486.365 262.499 474.943 259.104 459.099 259.104C444.385 259.104 365.343 213.23 345.081 192.185C344.304 191.378 342.273 192.315 342.411 193.426C344.996 214.206 344.843 261.693 333.587 264.763C321.138 268.158 292.846 280.607 292.846 295.319C292.846 309.021 329.167 319.778 343.296 333.075C344.504 334.213 343.63 336.032 341.975 335.913C317.741 334.175 297.198 317.299 273.607 305.504C282.66 264.763 299.636 253.446 306.426 245.524C320.126 229.541 318.497 212.705 312.084 195.73C289.45 207.046 278.134 205.915 278.134 226.285C250.445 243.905 195.52 256.841 193.256 267.026C190.993 277.211 170.623 311.162 150.252 311.162C144.593 311.162 170.623 273.816 170.623 267.026C170.623 260.236 211.364 247.787 217.022 239.866C220.311 235.261 231.031 219.561 245.314 212.705C273.607 199.125 254.31 185.252 266.817 171.964C284.924 152.725 287.187 144.803 287.187 134.618C287.187 124.433 312.084 127.232 306.426 127.828Z" stroke="#1C4766" stroke-width="4"/>
</svg>
